<mxfile host="app.diagrams.net" modified="2022-03-16T02:35:18.630Z" agent="5.0 (Windows NT 10.0; Win64; x64) AppleWebKit/537.36 (KHTML, like Gecko) Chrome/99.0.4844.51 Safari/537.36" etag="rxuG0GN4Cjs3KPBezSIU" version="17.1.2" type="github">
  <diagram id="yorWovq_tISe7ccQDG3e" name="Page-1">
    <mxGraphModel dx="1038" dy="579" grid="1" gridSize="10" guides="1" tooltips="1" connect="1" arrows="1" fold="1" page="1" pageScale="1" pageWidth="827" pageHeight="1169" math="0" shadow="0">
      <root>
        <mxCell id="0" />
        <mxCell id="1" parent="0" />
        <mxCell id="5rIF5Xdq-ZtbnCXGbU9Z-1" value="学生" style="shape=umlActor;verticalLabelPosition=bottom;verticalAlign=top;html=1;outlineConnect=0;fillColor=#d5e8d4;strokeColor=#82b366;" vertex="1" parent="1">
          <mxGeometry x="170" y="70" width="30" height="60" as="geometry" />
        </mxCell>
        <mxCell id="5rIF5Xdq-ZtbnCXGbU9Z-2" value="辅导员" style="shape=umlActor;verticalLabelPosition=bottom;verticalAlign=top;html=1;outlineConnect=0;fillColor=#dae8fc;strokeColor=#6c8ebf;" vertex="1" parent="1">
          <mxGeometry x="250" y="70" width="30" height="60" as="geometry" />
        </mxCell>
        <mxCell id="5rIF5Xdq-ZtbnCXGbU9Z-3" value="教职工" style="shape=umlActor;verticalLabelPosition=bottom;verticalAlign=top;html=1;outlineConnect=0;fillColor=#f8cecc;strokeColor=#b85450;" vertex="1" parent="1">
          <mxGeometry x="330" y="70" width="30" height="60" as="geometry" />
        </mxCell>
        <mxCell id="5rIF5Xdq-ZtbnCXGbU9Z-4" value="管理员" style="shape=umlActor;verticalLabelPosition=bottom;verticalAlign=top;html=1;outlineConnect=0;fillColor=#fff2cc;strokeColor=#d6b656;" vertex="1" parent="1">
          <mxGeometry x="410" y="70" width="30" height="60" as="geometry" />
        </mxCell>
        <mxCell id="5rIF5Xdq-ZtbnCXGbU9Z-5" value="校园疫情防控&lt;br style=&quot;font-size: 14px;&quot;&gt;健康打卡&lt;br style=&quot;font-size: 14px;&quot;&gt;人员管理系统" style="rounded=1;whiteSpace=wrap;html=1;fontSize=14;fillColor=#1ba1e2;strokeColor=#006EAF;fontColor=#ffffff;" vertex="1" parent="1">
          <mxGeometry x="50" y="290" width="120" height="60" as="geometry" />
        </mxCell>
        <mxCell id="5rIF5Xdq-ZtbnCXGbU9Z-6" value="登录" style="rounded=1;whiteSpace=wrap;html=1;fontSize=14;fillColor=#f5f5f5;fontColor=#333333;strokeColor=#666666;" vertex="1" parent="1">
          <mxGeometry x="75" y="220" width="70" height="30" as="geometry" />
        </mxCell>
      </root>
    </mxGraphModel>
  </diagram>
</mxfile>
